<svg xmlns="http://www.w3.org/2000/svg" xml:space="preserve" fill="none" viewBox="0 0 348 348"><path stroke="#000" stroke-width="2" d="M5.079 5.776h336.913v337.67H5.08z"/><path stroke="#000" stroke-width="2" d="M282.734 40.554c0-8.376 6.966-15.165 15.56-15.165 4.126 0 8.084 1.597 11.001 4.441 2.918 2.844 4.558 6.702 4.558 10.724 0 8.376-6.966 15.165-15.56 15.165-8.593 0-15.559-6.79-15.559-15.165z"/><path d="M34.175 37.301h202.653v75.333H34.175zM34.176 150.52h150.905v75.333H34.176z" style="fill:#000"/><path fill="none" d="M248.881 128.536h62.814v60.985h-62.814z" style="fill:#fff;fill-opacity:0;stroke:#000;stroke-width:2;stroke-dasharray:none;stroke-opacity:1"/><path fill="none" d="M248.881 189.341h62.814v60.985h-62.814zM100.026 254.874h62.814v60.985h-62.814z" style="fill:#fff;fill-opacity:0;stroke:#000;stroke-width:2;stroke-dasharray:none;stroke-opacity:1"/><path fill="none" d="M162.276 254.874h62.814v60.985h-62.814z" style="fill:#fff;fill-opacity:0;stroke:#000;stroke-width:2;stroke-dasharray:none;stroke-opacity:1"/><text xml:space="preserve" x="116.496" y="302.642" style="font-style:normal;font-variant:normal;font-weight:400;font-stretch:normal;font-size:48px;font-family:Roboto;-inkscape-font-specification:Roboto;text-align:start;writing-mode:lr-tb;direction:ltr;text-anchor:start;fill:#fff;fill-opacity:0;stroke:#000;stroke-width:2"><tspan x="116.496" y="302.642" style="font-size:48px;fill:#000;fill-opacity:1;stroke:none">R</tspan></text><text xml:space="preserve" x="181.391" y="303.064" style="font-style:normal;font-variant:normal;font-weight:400;font-stretch:normal;font-size:48px;font-family:Roboto;-inkscape-font-specification:Roboto;text-align:start;writing-mode:lr-tb;direction:ltr;text-anchor:start;fill:#fff;fill-opacity:0;stroke:#000;stroke-width:2"><tspan x="181.391" y="303.064" style="font-size:48px;fill:#000;fill-opacity:1;stroke:none">S</tspan></text><text xml:space="preserve" x="48.996" y="85.831" style="font-style:normal;font-variant:normal;font-weight:400;font-stretch:normal;font-size:29.9467px;font-family:Roboto;-inkscape-font-specification:Roboto;text-align:start;letter-spacing:0;writing-mode:lr-tb;direction:ltr;text-anchor:start;fill:#000;fill-opacity:1;stroke:none;stroke-width:1.40375"><tspan x="48.996" y="85.831" style="font-size:29.9467px;letter-spacing:0;fill:#fff;fill-opacity:1;stroke-width:1.40375">[ EQUATION ]</tspan></text></svg>