<svg xmlns="http://www.w3.org/2000/svg" xml:space="preserve" fill="none" viewBox="0 0 348 348"><path stroke="#000" stroke-width="2" d="M5.079 5.776h336.913v337.67H5.08z"/><path stroke="#000" stroke-width="2" d="M282.734 40.554c0-8.376 6.966-15.165 15.56-15.165 4.126 0 8.084 1.597 11.001 4.441 2.918 2.844 4.558 6.702 4.558 10.724 0 8.376-6.966 15.165-15.56 15.165-8.593 0-15.559-6.79-15.559-15.165z"/><path d="M34.175 37.301h202.653v75.333H34.175zm.001 113.219h150.905v75.333H34.176z" style="fill:#000"/><path fill="none" d="M248.881 128.536h62.814v60.985h-62.814z" style="fill:#fff;fill-opacity:0;stroke:#000;stroke-width:2;stroke-dasharray:none;stroke-opacity:1"/><path fill="none" d="M248.881 189.341h62.814v60.985h-62.814zm-148.855 65.533h62.814v60.985h-62.814z" style="fill:#fff;fill-opacity:0;stroke:#000;stroke-width:2;stroke-dasharray:none;stroke-opacity:1"/><path fill="none" d="M162.276 254.874h62.814v60.985h-62.814z" style="fill:#fff;fill-opacity:0;stroke:#000;stroke-width:2;stroke-dasharray:none;stroke-opacity:1"/><path d="M120.457 268.517h11.297q3.844 0 6.492 1.172 2.672 1.172 4.055 3.469 1.406 2.273 1.406 5.601 0 2.344-.961 4.29-.937 1.921-2.719 3.28-1.758 1.336-4.218 1.993l-1.266.492h-10.617l-.047-3.68h8.015q2.438 0 4.055-.844 1.617-.867 2.438-2.32.82-1.453.82-3.21 0-1.97-.774-3.446-.773-1.477-2.437-2.274-1.64-.82-4.242-.82h-6.774v30.422h-4.523zm19.945 34.125-8.297-15.469 4.711-.023 8.414 15.21v.282z" aria-label="R" style="font-size:48px;font-family:Roboto;-inkscape-font-specification:Roboto;fill:#000;stroke-width:2"/><path d="M203.54 294.439q0-1.195-.376-2.11-.351-.937-1.265-1.687-.89-.75-2.485-1.43-1.57-.68-3.984-1.382-2.531-.75-4.57-1.664-2.04-.938-3.492-2.133-1.454-1.196-2.227-2.742t-.773-3.54.82-3.68q.82-1.687 2.344-2.929 1.547-1.265 3.68-1.969 2.132-.703 4.757-.703 3.844 0 6.516 1.477 2.695 1.453 4.101 3.82 1.407 2.344 1.407 5.016h-4.5q0-1.922-.82-3.399-.821-1.5-2.485-2.343-1.664-.868-4.219-.868-2.414 0-3.984.727t-2.344 1.969q-.75 1.242-.75 2.836 0 1.078.445 1.968.47.868 1.43 1.618.984.75 2.484 1.382 1.524.633 3.633 1.22 2.906.82 5.016 1.827t3.469 2.274q1.382 1.242 2.039 2.836.68 1.57.68 3.562 0 2.086-.844 3.774-.844 1.687-2.414 2.882t-3.774 1.852q-2.18.633-4.875.633-2.367 0-4.664-.656-2.273-.657-4.148-1.97-1.852-1.312-2.977-3.234-1.102-1.945-1.102-4.5h4.5q0 1.758.68 3.024.68 1.242 1.852 2.062 1.195.82 2.695 1.22 1.523.374 3.164.374 2.367 0 4.008-.656 1.64-.656 2.484-1.875.867-1.219.867-2.883" aria-label="S" style="font-size:48px;font-family:Roboto;-inkscape-font-specification:Roboto;fill:#000;stroke-width:2"/><path d="M56.644 61.5v2.222H53.85V88.17h2.793v2.222h-5.499V61.5ZM80.36 83.534v2.296H69.087v-2.296ZM69.657 64.541v21.29h-2.822v-21.29Zm9.213 9.153v2.296h-9.783v-2.296Zm1.345-9.153v2.31H69.087v-2.31Zm14.564 18.848 5.41 4.284-1.9 1.755-5.323-4.226zm5.337-8.876v1.346q0 2.398-.6 4.299-.6 1.9-1.725 3.231t-2.705 2.033q-1.565.701-3.51.701-1.886 0-3.465-.701-1.565-.702-2.72-2.033-1.14-1.33-1.77-3.231-.628-1.901-.628-4.3v-1.345q0-2.398.614-4.284.629-1.901 1.77-3.232 1.14-1.345 2.705-2.047 1.579-.702 3.465-.702 1.945 0 3.524.702 1.58.702 2.705 2.047 1.126 1.331 1.726 3.232.614 1.886.614 4.284m-2.793 1.346v-1.375q0-1.9-.395-3.363-.38-1.462-1.126-2.457t-1.813-1.506-2.442-.512q-1.301 0-2.369.512-1.052.512-1.813 1.506-.76.995-1.17 2.457t-.409 3.363v1.375q0 1.915.41 3.392.409 1.462 1.17 2.471.774.994 1.842 1.506 1.067.512 2.368.512 1.375 0 2.442-.512t1.799-1.506q.746-1.009 1.126-2.471.38-1.477.38-3.392M116.64 64.54h2.808v14.403q0 2.398-1.068 3.992-1.067 1.594-2.836 2.398-1.755.79-3.817.79-2.164 0-3.919-.79-1.74-.804-2.763-2.398-1.01-1.594-1.01-3.992V64.54h2.794v14.403q0 1.667.614 2.749t1.71 1.608q1.112.527 2.574.527 1.477 0 2.574-.527 1.111-.526 1.725-1.608t.614-2.75zm14.798 1.886-7.048 19.404h-2.88l8.115-21.29h1.857zm5.908 19.404-7.063-19.404-.044-1.886h1.857l8.145 21.29zm-.366-7.881v2.31h-11.961v-2.31Zm12.093-13.41v21.291h-2.778v-21.29Zm6.843 0v2.311h-16.45v-2.31Zm6.185 0v21.291h-2.822v-21.29Zm21.51 9.973v1.346q0 2.398-.6 4.299-.6 1.9-1.725 3.231t-2.705 2.033q-1.565.701-3.51.701-1.886 0-3.465-.701-1.565-.702-2.72-2.033-1.14-1.33-1.77-3.231-.628-1.901-.628-4.3v-1.345q0-2.398.614-4.284.629-1.901 1.77-3.232 1.14-1.345 2.705-2.047 1.579-.702 3.465-.702 1.945 0 3.51.702 1.579.702 2.705 2.047 1.14 1.331 1.74 3.232.614 1.886.614 4.284m-2.793 1.346v-1.375q0-1.9-.395-3.363-.38-1.462-1.126-2.457t-1.828-1.506q-1.067-.512-2.427-.512-1.316 0-2.383.512-1.053.512-1.813 1.506-.746.995-1.156 2.457t-.41 3.363v1.375q0 1.915.41 3.392.41 1.462 1.17 2.471.775.994 1.828 1.506 1.067.512 2.383.512 1.375 0 2.442-.512t1.799-1.506q.746-1.009 1.126-2.471.38-1.477.38-3.392m23.381-11.318v21.29h-2.836L190.643 69.41v16.421h-2.822v-21.29h2.822l10.762 16.465V64.54Zm10.09-.82V61.5h5.527v28.894h-5.527v-2.222h2.807V63.72Z" aria-label="[ EQUATION ]" style="font-size:29.9467px;font-family:Roboto;-inkscape-font-specification:Roboto;letter-spacing:0;fill:#fff;stroke-width:1.40375"/></svg>