<svg width="1000" height="1000" version="1.1" xmlns="http://www.w3.org/2000/svg" desc="Created with imagetracer.js version 0.2.1" ><path fill="rgb(20,20,20)" stroke="rgb(20,20,20)" stroke-width="1" opacity="1" d="M 63 67 L 762 67 L 762 323 L 63 323 L 63 67 Z " /><path fill="rgb(20,20,20)" stroke="rgb(20,20,20)" stroke-width="1" opacity="1" d="M 101 384 L 523 384 L 523 680 L 101 680 L 101 384 Z " /><path fill="rgb(0,0,0)" stroke="rgb(0,0,0)" stroke-width="1" opacity="0" d="M 6 6 L 994 6 L 994 994 L 6 994 L 6 6 Z M 860 58 Q 847 61 839 67 Q 823 78 819 101 Q 818 123 829 135 Q 840 149 862 153 L 875 153 L 884 151 L 899 143 Q 913 132 917 112 L 916 94 Q 912 82 905 74 Q 897 64 885 60 L 877 58 L 860 58 Z M 63 67 L 63 323 L 762 323 L 762 67 L 63 67 Z M 589 354 L 589 464 L 699 464 L 699 354 L 589 354 Z M 707 354 L 707 464 L 817 464 L 817 354 L 707 354 Z M 101 384 L 101 680 L 523 680 L 523 384 L 101 384 Z M 589 477 L 589 587 L 699 587 L 699 477 L 589 477 Z M 707 477 L 707 587 L 817 587 L 817 477 L 707 477 Z M 589 600 L 589 710 L 699 710 L 699 600 L 589 600 Z M 707 600 L 707 710 L 817 710 L 817 600 L 707 600 Z M 507 789 L 507 979 L 697 979 L 697 789 L 507 789 Z M 279 790 L 279 980 L 469 980 L 469 790 L 279 790 Z " /><path fill="rgb(0,0,0)" stroke="rgb(0,0,0)" stroke-width="1" opacity="0" d="M 860.5 64 L 875.5 64 L 883.5 66 Q 895.7 70.8 903 80.5 L 910 94.5 L 911 111.5 Q 907.8 127.3 897.5 136 L 882.5 145 L 873.5 147 L 862.5 147 Q 842.6 143.4 833 129.5 Q 824.5 120 825 101.5 L 830 85.5 L 839.5 74 Q 847.5 66.5 860.5 64 Z " /><path fill="rgb(0,0,0)" stroke="rgb(0,0,0)" stroke-width="1" opacity="0" d="M 599 364 L 689 364 L 689 454 L 599 454 L 599 364 Z " /><path fill="rgb(0,0,0)" stroke="rgb(0,0,0)" stroke-width="1" opacity="0" d="M 717 364 L 807 364 L 807 454 L 717 454 L 717 364 Z " /><path fill="rgb(0,0,0)" stroke="rgb(0,0,0)" stroke-width="1" opacity="0" d="M 599 487 L 689 487 L 689 577 L 599 577 L 599 487 Z " /><path fill="rgb(0,0,0)" stroke="rgb(0,0,0)" stroke-width="1" opacity="0" d="M 717 487 L 807 487 L 807 577 L 717 577 L 717 487 Z " /><path fill="rgb(0,0,0)" stroke="rgb(0,0,0)" stroke-width="1" opacity="0" d="M 599 610 L 689 610 L 689 700 L 599 700 L 599 610 Z " /><path fill="rgb(0,0,0)" stroke="rgb(0,0,0)" stroke-width="1" opacity="0" d="M 717 610 L 807 610 L 807 700 L 717 700 L 717 610 Z " /><path fill="rgb(0,0,0)" stroke="rgb(0,0,0)" stroke-width="1" opacity="0" d="M 517 799 L 687 799 L 687 969 L 517 969 L 517 799 Z M 596 830 L 579 836 Q 569 842 566 854 Q 564 868 570 875 Q 576 882 586 886 L 618 894 L 627 898 L 633 906 Q 635 915 631 920 L 627 924 L 613 929 Q 592 930 583 921 Q 577 915 575 906 L 575 904 L 562 904 Q 562 917 568 926 L 578 935 L 589 940 L 599 942 Q 624 944 637 933 Q 644 927 647 916 Q 649 900 642 893 Q 635 885 625 881 L 595 874 L 586 870 L 580 864 Q 579 856 581 853 L 588 846 L 598 843 L 611 843 L 619 845 L 624 848 L 630 859 L 631 862 L 644 862 Q 644 850 638 844 Q 631 834 618 831 L 596 830 Z " /><path fill="rgb(0,0,0)" stroke="rgb(0,0,0)" stroke-width="1" opacity="0" d="M 289 800 L 459 800 L 459 970 L 289 970 L 289 800 Z M 332 830 L 332 938 L 346 938 L 346 938 L 346 890 L 370 890 L 377 893 L 390 909 L 409 938 L 426 938 L 403 902 Q 398 894 389 890 L 401 886 L 408 882 Q 416 875 418 863 Q 418 847 411 840 L 403 833 L 391 830 L 332 830 Z " /><path fill="rgb(0,0,0)" stroke="rgb(0,0,0)" stroke-width="1" opacity="0" d="M 346 843 L 385.5 843 L 395.5 846 L 401 851.5 Q 403.9 855.1 403 862.5 Q 401.4 869.4 396.5 873 L 383.5 877 L 346 877 L 346 843 Z " /><path fill="rgb(0,0,0)" stroke="rgb(0,0,0)" stroke-width="1" opacity="0.9137254901960784" d="M 6.5 5 L 993.5 5 L 995 6.5 L 995 993.5 L 993.5 995 L 6.5 995 L 5 993.5 L 5 6.5 L 6.5 5 Z M 6 6 L 6 994 L 994 994 L 994 6 L 6 6 Z " /><path fill="rgb(0,0,0)" stroke="rgb(0,0,0)" stroke-width="1" opacity="0.9137254901960784" d="M 859.5 58 L 862 58.5 L 859.5 59 L 859.5 58 Z " /><path fill="rgb(0,0,0)" stroke="rgb(0,0,0)" stroke-width="1" opacity="0.9137254901960784" d="M 874.5 58 L 877 58.5 L 874.5 59 L 874.5 58 Z " /><path fill="rgb(0,0,0)" stroke="rgb(0,0,0)" stroke-width="1" opacity="0.9137254901960784" d="M 888.5 62 L 893 64.5 L 891.5 64 Q 887.7 63.8 888.5 62 Z " /><path fill="rgb(0,0,0)" stroke="rgb(0,0,0)" stroke-width="1" opacity="0.9137254901960784" d="M 863.5 63 L 873 63.5 L 863.5 64 L 863.5 63 Z " /><path fill="rgb(0,0,0)" stroke="rgb(0,0,0)" stroke-width="1" opacity="0.9137254901960784" d="M 857.5 64 L 860 64.5 L 857.5 65 L 857.5 64 Z " /><path fill="rgb(0,0,0)" stroke="rgb(0,0,0)" stroke-width="1" opacity="0.9137254901960784" d="M 876.5 64 L 879 64.5 L 876.5 65 L 876.5 64 Z " /><path fill="rgb(0,0,0)" stroke="rgb(0,0,0)" stroke-width="1" opacity="0.9137254901960784" d="M 841.5 65 L 840.5 67 L 841.5 65 Z " /><path fill="rgb(0,0,0)" stroke="rgb(0,0,0)" stroke-width="1" opacity="0.9137254901960784" d="M 838.5 67 L 835.5 71 L 838.5 67 Z " /><path fill="rgb(0,0,0)" stroke="rgb(0,0,0)" stroke-width="1" opacity="0.9137254901960784" d="M 897.5 67 L 898.5 69 L 897.5 67 Z " /><path fill="rgb(0,0,0)" stroke="rgb(0,0,0)" stroke-width="1" opacity="0.9137254901960784" d="M 845.5 69 L 844.5 71 L 845.5 69 Z " /><path fill="rgb(0,0,0)" stroke="rgb(0,0,0)" stroke-width="1" opacity="0.9137254901960784" d="M 892.5 70 L 894.5 73 L 892.5 70 Z " /><path fill="rgb(0,0,0)" stroke="rgb(0,0,0)" stroke-width="1" opacity="0.9137254901960784" d="M 842.5 71 L 840.5 74 L 842.5 71 Z " /><path fill="rgb(0,0,0)" stroke="rgb(0,0,0)" stroke-width="1" opacity="0.9137254901960784" d="M 902.5 71 L 904.5 74 L 902.5 71 Z " /><path fill="rgb(0,0,0)" stroke="rgb(0,0,0)" stroke-width="1" opacity="0.9137254901960784" d="M 896.5 73 L 901.5 79 L 896.5 73 Z " /><path fill="rgb(0,0,0)" stroke="rgb(0,0,0)" stroke-width="1" opacity="0.9137254901960784" d="M 831.5 74 L 828.5 78 L 831.5 74 Z " /><path fill="rgb(0,0,0)" stroke="rgb(0,0,0)" stroke-width="1" opacity="0.9137254901960784" d="M 837.5 75 L 836.5 77 L 837.5 75 Z " /><path fill="rgb(0,0,0)" stroke="rgb(0,0,0)" stroke-width="1" opacity="0.9137254901960784" d="M 906.5 76 L 908.5 79 L 906.5 76 Z " /><path fill="rgb(0,0,0)" stroke="rgb(0,0,0)" stroke-width="1" opacity="0.9137254901960784" d="M 827.5 79 L 826.5 81 L 827.5 79 Z " /><path fill="rgb(0,0,0)" stroke="rgb(0,0,0)" stroke-width="1" opacity="0.9137254901960784" d="M 834.5 79 L 832.5 82 L 834.5 79 Z " /><path fill="rgb(0,0,0)" stroke="rgb(0,0,0)" stroke-width="1" opacity="0.9137254901960784" d="M 903.5 81 L 904.5 83 L 903.5 81 Z " /><path fill="rgb(0,0,0)" stroke="rgb(0,0,0)" stroke-width="1" opacity="0.9137254901960784" d="M 910.5 82 L 911.5 84 L 910.5 82 Z " /><path fill="rgb(0,0,0)" stroke="rgb(0,0,0)" stroke-width="1" opacity="0.9137254901960784" d="M 831.5 83 L 830.5 85 L 831.5 83 Z " /><path fill="rgb(0,0,0)" stroke="rgb(0,0,0)" stroke-width="1" opacity="0.9137254901960784" d="M 915.5 93 L 916 95.5 L 915 95.5 L 915.5 93 Z " /><path fill="rgb(0,0,0)" stroke="rgb(0,0,0)" stroke-width="1" opacity="0.9137254901960784" d="M 820.5 94 L 821 96.5 L 820 96.5 L 820.5 94 Z " /><path fill="rgb(0,0,0)" stroke="rgb(0,0,0)" stroke-width="1" opacity="0.9137254901960784" d="M 910.5 96 L 911 98.5 L 910 98.5 L 910.5 96 Z " /><path fill="rgb(0,0,0)" stroke="rgb(0,0,0)" stroke-width="1" opacity="0.9137254901960784" d="M 825.5 98 L 826 100.5 L 825 100.5 L 825.5 98 Z " /><path fill="rgb(0,0,0)" stroke="rgb(0,0,0)" stroke-width="1" opacity="0.9137254901960784" d="M 916.5 98 L 917 103.5 L 916 103.5 L 916.5 98 Z " /><path fill="rgb(0,0,0)" stroke="rgb(0,0,0)" stroke-width="1" opacity="0.9137254901960784" d="M 819.5 100 L 820 110.5 L 819 110.5 L 819.5 100 Z " /><path fill="rgb(0,0,0)" stroke="rgb(0,0,0)" stroke-width="1" opacity="0.9137254901960784" d="M 916.5 107 L 917 111.5 L 916 111.5 L 916.5 107 Z " /><path fill="rgb(0,0,0)" stroke="rgb(0,0,0)" stroke-width="1" opacity="0.9137254901960784" d="M 825.5 110 L 826 112.5 L 825 112.5 L 825.5 110 Z " /><path fill="rgb(0,0,0)" stroke="rgb(0,0,0)" stroke-width="1" opacity="0.9137254901960784" d="M 828.5 121 L 831 125.5 L 829 124.5 L 828.5 121 Z " /><path fill="rgb(0,0,0)" stroke="rgb(0,0,0)" stroke-width="1" opacity="0.9137254901960784" d="M 905.5 126 L 904.5 128 L 905.5 126 Z " /><path fill="rgb(0,0,0)" stroke="rgb(0,0,0)" stroke-width="1" opacity="0.9137254901960784" d="M 831.5 127 L 832.5 129 L 831.5 127 Z " /><path fill="rgb(0,0,0)" stroke="rgb(0,0,0)" stroke-width="1" opacity="0.9137254901960784" d="M 825.5 128 L 826.5 130 L 825.5 128 Z " /><path fill="rgb(0,0,0)" stroke="rgb(0,0,0)" stroke-width="1" opacity="0.9137254901960784" d="M 903.5 129 L 901.5 132 L 903.5 129 Z " /><path fill="rgb(0,0,0)" stroke="rgb(0,0,0)" stroke-width="1" opacity="0.9137254901960784" d="M 833.5 130 L 841.5 139 L 833.5 130 Z " /><path fill="rgb(0,0,0)" stroke="rgb(0,0,0)" stroke-width="1" opacity="0.9137254901960784" d="M 909.5 130 L 908.5 132 L 909.5 130 Z " /><path fill="rgb(0,0,0)" stroke="rgb(0,0,0)" stroke-width="1" opacity="0.9137254901960784" d="M 827.5 131 L 828.5 133 L 827.5 131 Z " /><path fill="rgb(0,0,0)" stroke="rgb(0,0,0)" stroke-width="1" opacity="0.9137254901960784" d="M 907.5 133 L 898.5 143 L 907.5 133 Z " /><path fill="rgb(0,0,0)" stroke="rgb(0,0,0)" stroke-width="1" opacity="0.9137254901960784" d="M 829.5 134 L 836.5 142 L 829.5 134 Z " /><path fill="rgb(0,0,0)" stroke="rgb(0,0,0)" stroke-width="1" opacity="0.9137254901960784" d="M 896.5 136 L 893.5 140 L 896.5 136 Z " /><path fill="rgb(0,0,0)" stroke="rgb(0,0,0)" stroke-width="1" opacity="0.9137254901960784" d="M 843.5 139 L 844.5 141 L 843.5 139 Z " /><path fill="rgb(0,0,0)" stroke="rgb(0,0,0)" stroke-width="1" opacity="0.9137254901960784" d="M 889.5 141 L 888.5 143 L 887 142.5 L 889.5 141 Z " /><path fill="rgb(0,0,0)" stroke="rgb(0,0,0)" stroke-width="1" opacity="0.9137254901960784" d="M 839.5 143 L 840.5 145 L 839.5 143 Z " /><path fill="rgb(0,0,0)" stroke="rgb(0,0,0)" stroke-width="1" opacity="0.9137254901960784" d="M 896.5 143 L 895.5 145 L 896.5 143 Z " /><path fill="rgb(0,0,0)" stroke="rgb(0,0,0)" stroke-width="1" opacity="0.9137254901960784" d="M 842.5 145 L 849 148.5 L 847.5 149 Q 842.9 147.8 842.5 145 Z " /><path fill="rgb(0,0,0)" stroke="rgb(0,0,0)" stroke-width="1" opacity="0.9137254901960784" d="M 893.5 145 L 892.5 147 L 893.5 145 Z " /><path fill="rgb(0,0,0)" stroke="rgb(0,0,0)" stroke-width="1" opacity="0.9137254901960784" d="M 859.5 146 L 862 146.5 L 859.5 147 L 859.5 146 Z " /><path fill="rgb(0,0,0)" stroke="rgb(0,0,0)" stroke-width="1" opacity="0.9137254901960784" d="M 874.5 146 L 877 146.5 L 874.5 147 L 874.5 146 Z " /><path fill="rgb(0,0,0)" stroke="rgb(0,0,0)" stroke-width="1" opacity="0.9137254901960784" d="M 861.5 152 L 875 152.5 L 861.5 153 L 861.5 152 Z " /><path fill="rgb(0,0,0)" stroke="rgb(0,0,0)" stroke-width="1" opacity="0.9137254901960784" d="M 384.5 830 L 391 830.5 L 384.5 831 L 384.5 830 Z " /><path fill="rgb(0,0,0)" stroke="rgb(0,0,0)" stroke-width="1" opacity="0.9137254901960784" d="M 595.5 830 L 601 830.5 L 595.5 831 L 595.5 830 Z " /><path fill="rgb(0,0,0)" stroke="rgb(0,0,0)" stroke-width="1" opacity="0.9137254901960784" d="M 607.5 830 L 612 830.5 L 607.5 831 L 607.5 830 Z " /><path fill="rgb(0,0,0)" stroke="rgb(0,0,0)" stroke-width="1" opacity="0.9137254901960784" d="M 394.5 831 L 397 831.5 L 394.5 832 L 394.5 831 Z " /><path fill="rgb(0,0,0)" stroke="rgb(0,0,0)" stroke-width="1" opacity="0.9137254901960784" d="M 590.5 831 L 593 831.5 L 590.5 832 L 590.5 831 Z " /><path fill="rgb(0,0,0)" stroke="rgb(0,0,0)" stroke-width="1" opacity="0.9137254901960784" d="M 615.5 831 L 618 831.5 L 615.5 832 L 615.5 831 Z " /><path fill="rgb(0,0,0)" stroke="rgb(0,0,0)" stroke-width="1" opacity="0.9137254901960784" d="M 404.5 834 L 405.5 836 L 404.5 834 Z " /><path fill="rgb(0,0,0)" stroke="rgb(0,0,0)" stroke-width="1" opacity="0.9137254901960784" d="M 407.5 836 L 410.5 840 L 407.5 836 Z " /><path fill="rgb(0,0,0)" stroke="rgb(0,0,0)" stroke-width="1" opacity="0.9137254901960784" d="M 578.5 836 L 576.5 839 L 578.5 836 Z " /><path fill="rgb(0,0,0)" stroke="rgb(0,0,0)" stroke-width="1" opacity="0.9137254901960784" d="M 632.5 838 L 637.5 844 L 632.5 838 Z " /><path fill="rgb(0,0,0)" stroke="rgb(0,0,0)" stroke-width="1" opacity="0.9137254901960784" d="M 411.5 841 L 412.5 843 L 411.5 841 Z " /><path fill="rgb(0,0,0)" stroke="rgb(0,0,0)" stroke-width="1" opacity="0.9137254901960784" d="M 386.5 843 L 389 843.5 L 386.5 844 L 386.5 843 Z " /><path fill="rgb(0,0,0)" stroke="rgb(0,0,0)" stroke-width="1" opacity="0.9137254901960784" d="M 571.5 843 L 570.5 845 L 571.5 843 Z " /><path fill="rgb(0,0,0)" stroke="rgb(0,0,0)" stroke-width="1" opacity="0.9137254901960784" d="M 594.5 843 L 597 843.5 L 594.5 844 L 594.5 843 Z " /><path fill="rgb(0,0,0)" stroke="rgb(0,0,0)" stroke-width="1" opacity="0.9137254901960784" d="M 611.5 843 L 614 843.5 L 611.5 844 L 611.5 843 Z " /><path fill="rgb(0,0,0)" stroke="rgb(0,0,0)" stroke-width="1" opacity="0.9137254901960784" d="M 638.5 845 L 639.5 847 L 638.5 845 Z " /><path fill="rgb(0,0,0)" stroke="rgb(0,0,0)" stroke-width="1" opacity="0.9137254901960784" d="M 396.5 846 L 400.5 851 L 396.5 846 Z " /><path fill="rgb(0,0,0)" stroke="rgb(0,0,0)" stroke-width="1" opacity="0.9137254901960784" d="M 586.5 846 L 581.5 852 L 586.5 846 Z " /><path fill="rgb(0,0,0)" stroke="rgb(0,0,0)" stroke-width="1" opacity="0.9137254901960784" d="M 621.5 846 L 622.5 848 L 621.5 846 Z " /><path fill="rgb(0,0,0)" stroke="rgb(0,0,0)" stroke-width="1" opacity="0.9137254901960784" d="M 626.5 851 L 627.5 853 L 626.5 851 Z " /><path fill="rgb(0,0,0)" stroke="rgb(0,0,0)" stroke-width="1" opacity="0.9137254901960784" d="M 566.5 853 L 567 855.5 L 566 855.5 L 566.5 853 Z " /><path fill="rgb(0,0,0)" stroke="rgb(0,0,0)" stroke-width="1" opacity="0.9137254901960784" d="M 417.5 856 L 418 862.5 L 417 862.5 L 417.5 856 Z " /><path fill="rgb(0,0,0)" stroke="rgb(0,0,0)" stroke-width="1" opacity="0.9137254901960784" d="M 579.5 856 L 580 862.5 L 579 862.5 L 579.5 856 Z " /><path fill="rgb(0,0,0)" stroke="rgb(0,0,0)" stroke-width="1" opacity="0.9137254901960784" d="M 643.5 857 L 644 860.5 L 643 860.5 L 643.5 857 Z " /><path fill="rgb(0,0,0)" stroke="rgb(0,0,0)" stroke-width="1" opacity="0.9137254901960784" d="M 581.5 866 L 584.5 870 L 581.5 866 Z " /><path fill="rgb(0,0,0)" stroke="rgb(0,0,0)" stroke-width="1" opacity="0.9137254901960784" d="M 568.5 870 L 570 872.5 L 568 871.5 L 568.5 870 Z " /><path fill="rgb(0,0,0)" stroke="rgb(0,0,0)" stroke-width="1" opacity="0.9137254901960784" d="M 586.5 870 L 589 871.5 L 587.5 872 L 586.5 870 Z " /><path fill="rgb(0,0,0)" stroke="rgb(0,0,0)" stroke-width="1" opacity="0.9137254901960784" d="M 413.5 874 L 412.5 876 L 413.5 874 Z " /><path fill="rgb(0,0,0)" stroke="rgb(0,0,0)" stroke-width="1" opacity="0.9137254901960784" d="M 570.5 874 L 571.5 876 L 570.5 874 Z " /><path fill="rgb(0,0,0)" stroke="rgb(0,0,0)" stroke-width="1" opacity="0.9137254901960784" d="M 384.5 876 L 388 876.5 L 384.5 877 L 384.5 876 Z " /><path fill="rgb(0,0,0)" stroke="rgb(0,0,0)" stroke-width="1" opacity="0.9137254901960784" d="M 411.5 877 L 407.5 882 L 411.5 877 Z " /><path fill="rgb(0,0,0)" stroke="rgb(0,0,0)" stroke-width="1" opacity="0.9137254901960784" d="M 575.5 879 L 576.5 881 L 575.5 879 Z " /><path fill="rgb(0,0,0)" stroke="rgb(0,0,0)" stroke-width="1" opacity="0.9137254901960784" d="M 405.5 882 L 404.5 884 L 405.5 882 Z " /><path fill="rgb(0,0,0)" stroke="rgb(0,0,0)" stroke-width="1" opacity="0.9137254901960784" d="M 628.5 883 L 633 885.5 L 631.5 885 Q 627.8 884.8 628.5 883 Z " /><path fill="rgb(0,0,0)" stroke="rgb(0,0,0)" stroke-width="1" opacity="0.9137254901960784" d="M 634.5 886 L 635.5 888 L 634.5 886 Z " /><path fill="rgb(0,0,0)" stroke="rgb(0,0,0)" stroke-width="1" opacity="0.9137254901960784" d="M 388.5 888 L 391 888.5 L 389 889.5 L 389.5 891 L 387 889.5 L 388.5 888 Z " /><path fill="rgb(0,0,0)" stroke="rgb(0,0,0)" stroke-width="1" opacity="0.9137254901960784" d="M 637.5 888 L 641.5 893 L 637.5 888 Z " /><path fill="rgb(0,0,0)" stroke="rgb(0,0,0)" stroke-width="1" opacity="0.9137254901960784" d="M 606.5 891 L 609 891.5 L 606.5 892 L 606.5 891 Z " /><path fill="rgb(0,0,0)" stroke="rgb(0,0,0)" stroke-width="1" opacity="0.9137254901960784" d="M 393.5 892 L 402.5 902 L 393.5 892 Z " /><path fill="rgb(0,0,0)" stroke="rgb(0,0,0)" stroke-width="1" opacity="0.9137254901960784" d="M 377.5 893 L 383.5 900 L 377.5 893 Z " /><path fill="rgb(0,0,0)" stroke="rgb(0,0,0)" stroke-width="1" opacity="0.9137254901960784" d="M 642.5 894 L 643.5 896 L 642.5 894 Z " /><path fill="rgb(0,0,0)" stroke="rgb(0,0,0)" stroke-width="1" opacity="0.9137254901960784" d="M 627.5 898 L 631.5 903 L 627.5 898 Z " /><path fill="rgb(0,0,0)" stroke="rgb(0,0,0)" stroke-width="1" opacity="0.9137254901960784" d="M 385.5 902 L 386.5 904 L 385.5 902 Z " /><path fill="rgb(0,0,0)" stroke="rgb(0,0,0)" stroke-width="1" opacity="0.9137254901960784" d="M 403.5 903 L 405.5 906 L 403.5 903 Z " /><path fill="rgb(0,0,0)" stroke="rgb(0,0,0)" stroke-width="1" opacity="0.9137254901960784" d="M 387.5 905 L 389.5 908 L 387.5 905 Z " /><path fill="rgb(0,0,0)" stroke="rgb(0,0,0)" stroke-width="1" opacity="0.9137254901960784" d="M 406.5 907 L 407.5 909 L 406.5 907 Z " /><path fill="rgb(0,0,0)" stroke="rgb(0,0,0)" stroke-width="1" opacity="0.9137254901960784" d="M 633.5 907 L 634 913.5 L 633 913.5 L 633.5 907 Z " /><path fill="rgb(0,0,0)" stroke="rgb(0,0,0)" stroke-width="1" opacity="0.9137254901960784" d="M 562.5 908 L 563 910.5 L 562 910.5 L 562.5 908 Z " /><path fill="rgb(0,0,0)" stroke="rgb(0,0,0)" stroke-width="1" opacity="0.9137254901960784" d="M 390.5 909 L 391.5 911 L 390.5 909 Z " /><path fill="rgb(0,0,0)" stroke="rgb(0,0,0)" stroke-width="1" opacity="0.9137254901960784" d="M 408.5 910 L 409.5 912 L 408.5 910 Z " /><path fill="rgb(0,0,0)" stroke="rgb(0,0,0)" stroke-width="1" opacity="0.9137254901960784" d="M 410.5 913 L 411.5 915 L 410.5 913 Z " /><path fill="rgb(0,0,0)" stroke="rgb(0,0,0)" stroke-width="1" opacity="0.9137254901960784" d="M 395.5 917 L 396.5 919 L 395.5 917 Z " /><path fill="rgb(0,0,0)" stroke="rgb(0,0,0)" stroke-width="1" opacity="0.9137254901960784" d="M 579.5 917 L 580.5 919 L 579.5 917 Z " /><path fill="rgb(0,0,0)" stroke="rgb(0,0,0)" stroke-width="1" opacity="0.9137254901960784" d="M 413.5 918 L 414.5 920 L 413.5 918 Z " /><path fill="rgb(0,0,0)" stroke="rgb(0,0,0)" stroke-width="1" opacity="0.9137254901960784" d="M 397.5 920 L 398.5 922 L 397.5 920 Z " /><path fill="rgb(0,0,0)" stroke="rgb(0,0,0)" stroke-width="1" opacity="0.9137254901960784" d="M 630.5 920 L 627.5 924 L 630.5 920 Z " /><path fill="rgb(0,0,0)" stroke="rgb(0,0,0)" stroke-width="1" opacity="0.9137254901960784" d="M 415.5 921 L 416.5 923 L 415.5 921 Z " /><path fill="rgb(0,0,0)" stroke="rgb(0,0,0)" stroke-width="1" opacity="0.9137254901960784" d="M 583.5 921 L 585.5 924 L 583.5 921 Z " /><path fill="rgb(0,0,0)" stroke="rgb(0,0,0)" stroke-width="1" opacity="0.9137254901960784" d="M 399.5 923 L 400.5 925 L 399.5 923 Z " /><path fill="rgb(0,0,0)" stroke="rgb(0,0,0)" stroke-width="1" opacity="0.9137254901960784" d="M 625.5 924 L 624.5 926 L 623 925.5 L 625.5 924 Z " /><path fill="rgb(0,0,0)" stroke="rgb(0,0,0)" stroke-width="1" opacity="0.9137254901960784" d="M 568.5 925 L 570.5 928 L 568.5 925 Z " /><path fill="rgb(0,0,0)" stroke="rgb(0,0,0)" stroke-width="1" opacity="0.9137254901960784" d="M 642.5 925 L 641.5 927 L 642.5 925 Z " /><path fill="rgb(0,0,0)" stroke="rgb(0,0,0)" stroke-width="1" opacity="0.9137254901960784" d="M 402.5 928 L 403.5 930 L 402.5 928 Z " /><path fill="rgb(0,0,0)" stroke="rgb(0,0,0)" stroke-width="1" opacity="0.9137254901960784" d="M 598.5 928 L 601 928.5 L 598.5 929 L 598.5 928 Z " /><path fill="rgb(0,0,0)" stroke="rgb(0,0,0)" stroke-width="1" opacity="0.9137254901960784" d="M 613.5 928 L 616 928.5 L 613.5 929 L 613.5 928 Z " /><path fill="rgb(0,0,0)" stroke="rgb(0,0,0)" stroke-width="1" opacity="0.9137254901960784" d="M 640.5 928 L 636.5 933 L 640.5 928 Z " /><path fill="rgb(0,0,0)" stroke="rgb(0,0,0)" stroke-width="1" opacity="0.9137254901960784" d="M 420.5 929 L 421.5 931 L 420.5 929 Z " /><path fill="rgb(0,0,0)" stroke="rgb(0,0,0)" stroke-width="1" opacity="0.9137254901960784" d="M 404.5 931 L 405.5 933 L 404.5 931 Z " /><path fill="rgb(0,0,0)" stroke="rgb(0,0,0)" stroke-width="1" opacity="0.9137254901960784" d="M 422.5 932 L 423.5 934 L 422.5 932 Z " /><path fill="rgb(0,0,0)" stroke="rgb(0,0,0)" stroke-width="1" opacity="0.9137254901960784" d="M 575.5 932 L 577.5 935 L 575.5 932 Z " /><path fill="rgb(0,0,0)" stroke="rgb(0,0,0)" stroke-width="1" opacity="0.9137254901960784" d="M 633.5 934 L 632.5 936 L 633.5 934 Z " /><path fill="rgb(0,0,0)" stroke="rgb(0,0,0)" stroke-width="1" opacity="0.9137254901960784" d="M 407.5 936 L 408.5 938 L 407.5 936 Z " /><path fill="rgb(0,0,0)" stroke="rgb(0,0,0)" stroke-width="1" opacity="0.9137254901960784" d="M 618.5 940 L 621 940.5 L 618.5 941 L 618.5 940 Z " /><path fill="rgb(0,0,0)" stroke="rgb(0,0,0)" stroke-width="1" opacity="0.9137254901960784" d="M 598.5 941 L 604 941.5 L 598.5 942 L 598.5 941 Z " /><path fill="rgb(0,0,0)" stroke="rgb(0,0,0)" stroke-width="1" opacity="0.9137254901960784" d="M 610.5 941 L 616 941.5 L 610.5 942 L 610.5 941 Z " /><path fill="rgb(0,0,0)" stroke="rgb(0,0,0)" stroke-width="1" opacity="1" d="M 0 0 L 1000 0 L 1000 1000 L 0 1000 L 0 0 Z M 7 5 L 5 7 L 5 994 L 7 995 L 994 995 L 995 994 L 995 7 L 994 5 L 7 5 Z " /><path fill="rgb(0,0,0)" stroke="rgb(0,0,0)" stroke-width="1" opacity="1" d="M 862.5 58 L 873.5 58 L 885.5 61 Q 898.2 65.8 906 75.5 L 914 89.5 L 917 106.5 L 916 107.5 L 915 118.5 L 910 129.5 L 897.5 143 Q 889.6 149.6 877.5 152 L 858.5 152 Q 839.3 147.3 829 133.5 Q 818.1 121.9 820 97.5 Q 823.7 80.7 834.5 71 L 850.5 61 L 862.5 58 Z M 864 63 L 852 66 L 838 75 Q 828 84 825 99 Q 823 120 833 131 Q 842 143 860 147 L 877 147 L 894 140 Q 907 131 911 114 L 911 97 L 902 79 Q 891 63 864 63 Z " /><path fill="rgb(0,0,0)" stroke="rgb(0,0,0)" stroke-width="1" opacity="1" d="M 589 354 L 699 354 L 699 464 L 589 464 L 589 354 Z M 599 364 L 599 454 L 689 454 L 689 364 L 599 364 Z " /><path fill="rgb(0,0,0)" stroke="rgb(0,0,0)" stroke-width="1" opacity="1" d="M 707 354 L 817 354 L 817 464 L 707 464 L 707 354 Z M 717 364 L 717 454 L 807 454 L 807 364 L 717 364 Z " /><path fill="rgb(0,0,0)" stroke="rgb(0,0,0)" stroke-width="1" opacity="1" d="M 589 477 L 699 477 L 699 587 L 589 587 L 589 477 Z M 599 487 L 599 577 L 689 577 L 689 487 L 599 487 Z " /><path fill="rgb(0,0,0)" stroke="rgb(0,0,0)" stroke-width="1" opacity="1" d="M 707 477 L 817 477 L 817 587 L 707 587 L 707 477 Z M 717 487 L 717 577 L 807 577 L 807 487 L 717 487 Z " /><path fill="rgb(0,0,0)" stroke="rgb(0,0,0)" stroke-width="1" opacity="1" d="M 589 600 L 699 600 L 699 710 L 589 710 L 589 600 Z M 599 610 L 599 700 L 689 700 L 689 610 L 599 610 Z " /><path fill="rgb(0,0,0)" stroke="rgb(0,0,0)" stroke-width="1" opacity="1" d="M 707 600 L 817 600 L 817 710 L 707 710 L 707 600 Z M 717 610 L 717 700 L 807 700 L 807 610 L 717 610 Z " /><path fill="rgb(0,0,0)" stroke="rgb(0,0,0)" stroke-width="1" opacity="1" d="M 507 789 L 697 789 L 697 979 L 507 979 L 507 789 Z M 517 799 L 517 969 L 687 969 L 687 799 L 517 799 Z " /><path fill="rgb(0,0,0)" stroke="rgb(0,0,0)" stroke-width="1" opacity="1" d="M 279 790 L 469 790 L 469 980 L 279 980 L 279 790 Z M 289 800 L 289 970 L 459 970 L 459 800 L 289 800 Z " /><path fill="rgb(0,0,0)" stroke="rgb(0,0,0)" stroke-width="1" opacity="1" d="M 332 830 L 383.5 830 L 384.5 831 L 393.5 831 L 403.5 834 L 411 840.5 L 417 853.5 L 417 865.5 Q 414.4 876.4 406.5 882 L 396.5 887 L 388.5 888 L 387 889.5 L 392.5 892 L 403 902.5 L 425 938 L 409.5 938 L 407 935.5 L 390 907.5 L 377.5 893 L 371.5 890 L 346 890 L 346 937.5 L 345.5 938 L 332 938 L 332 830 Z M 346 843 L 346 877 L 388 877 L 399 872 L 403 865 Q 405 855 401 851 Q 397 844 389 843 L 346 843 Z " /><path fill="rgb(0,0,0)" stroke="rgb(0,0,0)" stroke-width="1" opacity="1" d="M 601.5 830 L 614.5 831 L 622.5 833 Q 632.5 836.5 638 844.5 L 641 849.5 L 644 861.5 L 631 862 Q 629.8 851 621.5 846 L 613.5 843 L 594.5 843 Q 585.3 844.8 581 851.5 Q 578.1 855.1 579 862.5 L 584.5 870 L 596.5 875 L 625.5 882 Q 635.8 885.7 642 893.5 Q 647.7 900.3 647 913.5 Q 644.1 927.1 634.5 934 L 621.5 940 L 604.5 942 L 603.5 941 L 594.5 941 L 584.5 938 Q 576.2 934.8 571 928.5 L 564 916.5 L 562 904 L 574.5 904 L 575 907.5 Q 577.4 918.6 585.5 924 Q 595.6 931.4 615.5 929 Q 625.8 927.3 631 920.5 Q 634.9 916.4 634 907.5 Q 632.5 901 627.5 898 L 615.5 893 L 584.5 885 L 572 876.5 Q 565.4 870.1 566 856.5 Q 568.2 845.2 575.5 839 L 583.5 834 L 601.5 830 Z " /></svg>